# xmcd
#
# Track frame offsets: 
#        150
#        16107
#        40848
#        58745
#        76295
#        106099
#        122346
#
# Disc length: 2002 seconds
#
# Revision: 0
# Processed by: cddbd v1.5.2PL0 Copyright (c) Steve Scherf et al.
# Submitted via: ExactAudioCopy v0.99pb5
#
DISCID=4607d007
DTITLE=Chuck Bailey - Old Walking Shoes
DYEAR=2012
DGENRE=Blues
TTITLE0=Old Walking Shoes
TTITLE1=Lettin' The Blues Dig In
TTITLE2=Where Has My Love Gone
TTITLE3=Lonely In The Past
TTITLE4=Feelin' Mighty Low
TTITLE5=Same Old Pain
TTITLE6=Cut That Never Heals
EXTD=
EXTT0=
EXTT1=
EXTT2=
EXTT3=
EXTT4=
EXTT5=
EXTT6=
PLAYORDER=
